<svg width="31" height="28" viewBox="0 0 31 28" fill="none" xmlns="http://www.w3.org/2000/svg">
<path d="M12.6211 4.01442L13.2773 10.4995L15.7065 3.10693L12.6211 4.01442Z" fill="#C9CED6"/>
<path d="M8.62744 0L12.6204 4.01388L15.7058 3.1064L8.62744 0Z" fill="#E1E4E8"/>
<path d="M11.7478 10.0452L13.2766 10.4989L12.6204 4.01388L8.62744 0L11.7478 10.0452Z" fill="#F1F2F4"/>
<path d="M5.36115 0.677246L8.99808 12.8376L5.28436 19.183L0 7.23907L5.36115 0.677246Z" fill="#C9CED6"/>
<path d="M19.4831 2.82715L23.0223 8.27905L16.5791 11.4343L19.4831 2.82715Z" fill="#F1F2F4"/>
<path d="M27.0021 0.886719L23.0231 8.27924L19.4839 2.82734L27.0021 0.886719Z" fill="#F7F8F9"/>
<path d="M30.6793 9.00523L23.0215 8.27924L27.0005 0.886719L30.6793 9.00523Z" fill="#E1E4E8"/>
<path d="M26.435 14.7918C26.2815 14.5195 23.0215 8.27881 23.0215 8.27881L30.7002 8.97688L26.435 14.7918Z" fill="#C9CED6"/>
<path d="M16.5791 11.4341L26.4358 14.7918L23.0223 8.27881L16.5791 11.4341Z" fill="#E1E4E8"/>
<path d="M12.4946 13.4722L17.4998 27.3428L24.0686 17.5419L12.4946 13.4722Z" fill="#A83C3B"/>
<path d="M13.9891 27.9999L5.28418 19.1833L8.99789 12.8379L13.9891 27.9999Z" fill="#C73C38"/>
<path d="M16.8994 17.7304L17.4998 27.3428L12.4946 13.4722L16.8994 17.7304Z" fill="#F1F2F4"/>
<path d="M24.0686 17.5419L16.8994 17.7304L12.4946 13.4722L24.0686 17.5419Z" fill="#E1E4E8"/>
<path d="M17.5007 27.3433L16.9004 17.731L24.0695 17.5425L17.5007 27.3433Z" fill="#C9CED6"/>
<path d="M0 7.23907L8.99808 12.8376L5.36115 0.677246L0 7.23907Z" fill="#E1E4E8"/>
<path d="M8.99789 12.8379L5.28418 19.1833L11.49 20.4049L8.99789 12.8379Z" fill="#DB4545"/>
<path d="M13.9891 27.9999L5.28418 19.1833L8.99789 12.8379L13.9891 27.9999Z" fill="#C9CED6"/>
<path d="M8.99789 12.8379L5.28418 19.1833L11.49 20.4049L8.99789 12.8379Z" fill="#E1E4E8"/>
</svg>
