<svg xmlns="http://www.w3.org/2000/svg" version="1.1" xmlns:xlink="http://www.w3.org/1999/xlink" xmlns:svgjs="http://svgjs.dev/svgjs" width="308.7612359841165" height="304.915625" viewBox="0 0 1000 1055"><g transform="matrix(1,0,0,1,-0.4089398940549813,0.42791424448853377)"><svg viewBox="0 0 234 247" data-background-color="#ffffff" preserveAspectRatio="xMidYMid meet" height="1055" width="1000" xmlns="http://www.w3.org/2000/svg" xmlns:xlink="http://www.w3.org/1999/xlink"><g id="tight-bounds" transform="matrix(1,0,0,1,0.09569193520886188,-0.09997365579206985)"><svg viewBox="0 0 233.80861612958228 247.2" height="247.2" width="233.80861612958228"><g><svg viewBox="0 0 233.80861612958228 247.2" height="247.2" width="233.80861612958228"><g><svg viewBox="0 0 233.80861612958228 247.2" height="247.2" width="233.80861612958228"><g id="textblocktransform"><svg viewBox="0 0 233.80861612958228 247.2" height="247.2" width="233.80861612958228" id="textblock"><g><svg viewBox="0 0 233.80861612958228 247.2" height="247.2" width="233.80861612958228"><path d="M233.261 53.02C232.162 27.36 229.029 20.227 229.029 20.227 219.411-6.202 207.408-0.506 196.625 3.292 177.588 3.446 158.627 9.091 139.633 12.119 99.765 12.581 59.557 4.986 19.888 23.717 16.161 29.464-3.866 24.846 0.663 56.304 1.85 69.39 6.181 83.913 6.049 95.922 6.642 98.026 7.467 93.202 7.818 96.23 9.05 104.39 11.061 100.541 12.71 105.365 10.413 118.246 12.061 128.971 13.633 140.21 10.863 143.135 7.313 141.749 5.719 151.449 5.554 158.479 4.664 157.145 3.686 156.837 2.971 156.632 1.531 157.402 1.773 159.608 2.597 167.152-0.942 171.514 1.278 178.904-0.25 186.91 2.334 193.838 1.982 202.511 1.938 204.255 2.18 205.744 2.564 206.154 4.268 208.361 1.784 212.672 2.048 217.342 19.525 249.262 38.486 227.195 56.391 241.872 61.041 231.608 57.546 245.516 59.403 243.36 60.854 240.846 61.909 251.263 63.547 245.362 63.8 243.668 63.415 239.665 64.317 240.435 64.789 240.846 65.207 240.743 65.273 238.382 65.372 234.841 64.503 237.048 64.273 235.201 66.768 225.861 66.152 248.081 68.493 247.158 68.384 244.438 67.702 240.538 69.098 241.051 70.483 237.151 70.527 233.918 71.758 242.693 71.802 244.592 72.022 245.926 72.374 246.85 76.221 237.305 80.046 250.237 84.08 245.926 86.553 241.205 88.927 248.492 91.433 246.696 92.313 245.259 93.203 242.693 94.05 247.004 104.415 247.928 115.462 244.079 125.288 247.158 151.548 241.41 179.61 249.518 207.298 241.923 213.828 238.998 220.61 234.841 226.974 231.506 226.974 231.506 232.129 222.371 232.129 181.316S233.228 145.393 233.393 112.703C233.558 80.013 234.327 78.679 233.228 53.02Z" opacity="1" fill="#ed2647" data-fill-palette-color="tertiary"></path><g transform="matrix(1,0,0,1,55.76832,26.230666666666668)"><svg width="122.27197612958227" viewBox="2.9800000190734863 -37.11000061035156 23.970001220703125 38.18000030517578" height="194.73866666666666" data-palette-color="#ffffff"><path d="M23.78 0.15L23.44 0.1Q23.19 0.68 22.41 1.07L22.41 1.07Q22.07 0.88 21.8 0.61 21.53 0.34 21.14 0.2L21.14 0.2Q20.85-0.39 20.7-0.51 20.56-0.63 20.36-0.68L20.36-0.68Q20.07-0.93 19.87-1.27 19.68-1.61 19.43-1.86L19.43-1.86Q19.34-1.9 19.07-2.17 18.8-2.44 18.51-2.73 18.21-3.03 17.97-3.3 17.72-3.56 17.68-3.56L17.68-3.56Q17.24-3.86 16.89-4.2L16.89-4.2Q16.8-4.35 16.67-4.52 16.55-4.69 16.46-4.79L16.46-4.79Q16.06-4.93 15.82-5.2 15.58-5.47 15.36-5.81 15.14-6.15 14.87-6.42 14.6-6.69 14.26-6.84L14.26-6.84Q13.92-7.32 13.43-7.64 12.94-7.96 12.6-8.4L12.6-8.4Q12.3-8.74 11.96-9.06 11.62-9.38 11.23-9.67L11.23-9.67Q11.04-9.96 10.6-10.52 10.16-11.08 9.81-11.13L9.81-11.13Q9.77-10.01 9.74-8.89 9.72-7.76 9.67-6.64L9.67-6.64Q9.67-6.05 9.69-5.42 9.72-4.79 9.67-4.15L9.67-4.15Q9.62-3.91 9.55-3.64 9.47-3.37 9.47-3.08L9.47-3.08Q9.47-2.49 9.4-2.32 9.33-2.15 9.28-2L9.28-2Q9.13-1.51 9.01-0.81 8.89-0.1 8.5 0.29L8.5 0.29Q7.96 0.34 7.67 0.2L7.67 0.2Q7.57 0.29 7.47 0.39 7.37 0.49 7.18 0.49L7.18 0.49Q7.08 0.39 6.86 0.32 6.64 0.24 6.54 0.24L6.54 0.24Q6.3 0.24 6.03 0.34 5.76 0.44 5.52 0.44L5.52 0.44Q5.27 0.44 5.1 0.32 4.93 0.2 4.69 0.2L4.69 0.2Q4.54 0.2 4.35 0.34 4.15 0.49 3.96 0.49L3.96 0.49Q3.71 0.49 3.54 0.42 3.37 0.34 3.17 0.29L3.17 0.29Q3.17 0.15 3.2 0 3.22-0.15 3.17-0.29L3.17-0.29 2.98-1.51Q3.03-1.86 3.1-2.2 3.17-2.54 3.22-2.83L3.22-2.83Q3.27-3.61 3.3-4.32 3.32-5.03 3.32-5.76L3.32-5.76Q3.32-7.03 3.3-8.25 3.27-9.47 3.32-10.74L3.32-10.74Q3.37-11.18 3.44-11.65 3.52-12.11 3.52-12.55L3.52-12.55Q3.52-13.82 3.66-15.04 3.81-16.26 3.91-17.53L3.91-17.53Q4-18.51 4-19.43 4-20.36 4-21.29L4-21.29Q4-23.1 3.96-24.88 3.91-26.66 3.91-28.42L3.91-28.42Q3.91-29 3.96-30 4-31.01 3.86-31.54L3.86-31.54Q3.91-32.96 3.86-34.33L3.86-34.33Q4.05-34.42 4.08-34.62 4.1-34.81 4.1-35.01L4.1-35.01 4.1-35.69Q4.54-36.18 4.83-36.18L4.83-36.18Q5.08-36.18 5.32-36.13 5.57-36.08 5.81-35.94L5.81-35.94Q6.45-36.08 6.64-35.99 6.84-35.89 7.08-35.79L7.08-35.79Q7.47-35.84 7.62-36.13L7.62-36.13Q8.15-36.04 8.15-35.89 8.15-35.74 8.25-35.6L8.25-35.6Q8.74-35.55 8.91-35.67 9.08-35.79 9.33-35.84L9.33-35.84Q9.77-35.74 9.91-35.6L9.91-35.6Q9.91-35.3 10.06-34.94 10.21-34.57 10.21-33.98L10.21-33.98Q10.21-33.54 10.16-33.13 10.11-32.71 10.11-32.32L10.11-32.32Q10.11-31.64 10.16-31.01 10.21-30.37 10.21-29.69L10.21-29.69Q10.21-29.49 10.18-29.32 10.16-29.15 10.16-28.96L10.16-28.96Q10.16-27.1 10.25-25.2 10.35-23.29 10.35-21.39L10.35-21.39Q10.35-21.29 10.3-21.12 10.25-20.95 10.35-20.85L10.35-20.85Q11.18-21.73 11.77-22.73 12.35-23.73 13.04-24.71L13.04-24.71Q13.62-25.44 14.23-26.46 14.84-27.49 15.28-28.32L15.28-28.32Q15.48-28.61 15.63-28.91 15.77-29.2 15.97-29.49L15.97-29.49Q16.06-29.74 16.24-29.96 16.41-30.18 16.5-30.47L16.5-30.47Q16.75-30.86 16.94-31.23 17.14-31.59 17.38-31.98L17.38-31.98Q17.63-32.37 17.9-32.69 18.16-33.01 18.41-33.35L18.41-33.35Q18.8-33.98 19.24-34.64 19.68-35.3 20.02-35.99L20.02-35.99Q20.51-36.23 20.9-36.55 21.29-36.87 21.73-37.11L21.73-37.11Q22.22-36.47 22.44-36.23 22.66-35.99 23.05-35.94L23.05-35.94Q23.14-35.79 23.17-35.6 23.19-35.4 23.34-35.3L23.34-35.3Q23.93-35.25 24.02-35.3L24.02-35.3Q24.17-35.06 24.44-34.94 24.71-34.81 24.95-34.72L24.95-34.72Q24.95-34.57 24.95-34.4 24.95-34.23 25-34.13L25-34.13Q25.59-33.89 25.59-33.2L25.59-33.2Q24.66-31.54 23.56-30.05 22.46-28.56 21.63-26.86L21.63-26.86Q21.39-26.32 21.07-25.83 20.75-25.34 20.56-24.8L20.56-24.8Q20.21-24.46 20.02-24.1 19.82-23.73 19.53-23.39L19.53-23.39Q19.34-23.14 19.14-22.88 18.95-22.61 18.75-22.36L18.75-22.36Q18.36-21.83 18.04-21.26 17.72-20.7 17.29-20.17L17.29-20.17Q16.99-19.68 16.6-19.19L16.6-19.19Q16.21-18.65 15.94-17.99 15.67-17.33 15.28-16.8L15.28-16.8Q14.89-16.21 14.87-15.94 14.84-15.67 14.6-15.04L14.6-15.04Q14.94-14.5 15.38-14.06 15.82-13.62 16.31-13.23L16.31-13.23Q16.7-12.7 17.21-12.28 17.72-11.87 18.26-11.38L18.26-11.38Q18.46-11.18 18.6-11.01 18.75-10.84 18.95-10.69L18.95-10.69Q19.48-10.11 20.24-9.57 21-9.03 21.68-8.54L21.68-8.54Q22.22-8.06 23.02-7.35 23.83-6.64 24.71-5.83 25.59-5.03 26.27-4.32 26.95-3.61 26.95-3.42L26.95-3.42Q26.71-2.69 26.39-2.51 26.07-2.34 25.93-2L25.93-2Q25.63-1.9 25.63-1.81 25.63-1.71 25.49-1.46L25.49-1.46Q25.15-1.22 24.9-0.9 24.66-0.59 24.41-0.29L24.41-0.29Q24.22-0.2 24.05-0.12 23.88-0.05 23.78 0.15L23.78 0.15Z" opacity="1" transform="matrix(1,0,0,1,0,0)" fill="#ffffff" class="undefined-text-0" data-fill-palette-color="quaternary" id="text-0"></path></svg></g></svg></g></svg></g></svg></g><g></g></svg></g><defs></defs></svg><rect width="233.80861612958228" height="247.2" fill="none" stroke="none" visibility="hidden"></rect></g></svg></g></svg>